<?xml version="1.0" encoding="utf-8"?>
<!-- Generator: Adobe Illustrator 15.0.0, SVG Export Plug-In  -->
<!DOCTYPE svg PUBLIC "-//W3C//DTD SVG 1.1//EN" "http://www.w3.org/Graphics/SVG/1.1/DTD/svg11.dtd" [
	<!ENTITY ns_flows "http://ns.adobe.com/Flows/1.0/">
]>
<svg version="1.1"
	 xmlns="http://www.w3.org/2000/svg" xmlns:xlink="http://www.w3.org/1999/xlink" xmlns:a="http://ns.adobe.com/AdobeSVGViewerExtensions/3.0/"
	 x="0px" y="0px" width="480px" height="640px" viewBox="-1.595 -18.228 480 640" enable-background="new -1.595 -18.228 480 640"
	 xml:space="preserve">
<defs>
</defs>
<path fill="#FFFFFF" d="M391.405,284.837c0,6.591-3.511,11.935-7.842,11.935H86.247c-4.331,0-7.842-5.344-7.842-11.935v-1.13
	c0-6.591,3.511-11.935,7.842-11.935h297.316c4.331,0,7.842,5.344,7.842,11.935V284.837z"/>
<path fill="#FFFFFF" d="M110.405,271.772v-92.405c0-43.603,37.051-74.975,84.265-74.975L233.909,115l40.764-10.608
	c47.218,0,85.732,31.373,85.732,74.975v92.405"/>
<path fill="#FFFFFF" d="M226.012,376.243c0,25.624-20.78,46.411-46.411,46.411s-46.415-20.787-46.415-46.411
	c0-25.639,20.783-46.42,46.415-46.42S226.012,350.604,226.012,376.243z"/>
<path fill="#FFFFFF" d="M337.405,376.243c0,25.624-20.781,46.411-46.411,46.411c-25.633,0-46.416-20.787-46.416-46.411
	c0-25.639,20.783-46.42,46.416-46.42C316.624,329.823,337.405,350.604,337.405,376.243z"/>
<line fill="#020202" stroke="#FFFFFF" stroke-width="6" stroke-miterlimit="10" x1="181.405" y1="336.772" x2="295.405" y2="336.772"/>
<path fill="none" stroke="#FFFFFF" stroke-width="7.9565" stroke-miterlimit="10" d="M211.423,381.549
	c0-13.188,10.69-23.877,23.87-23.877c13.185,0,23.874,10.689,23.874,23.877"/>
<path fill="#FFFFFF" d="M273.054,448.772h-21.616c-3.233,6-10.106,11.514-18.129,11.514c-8.026,0-14.895-5.514-18.132-11.514
	h-18.635c-24.064,0-43.764,19.794-45.716,47.398l83.972-11.768l83.97,12.049C316.818,468.848,297.119,448.772,273.054,448.772z"/>
<path fill="none" stroke="#FFFFFF" stroke-width="16.969" stroke-miterlimit="10" d="M468.84,302.6
	c0,162.431-103.056,294.116-230.178,294.116C111.541,596.716,8.484,465.031,8.484,302.6c0-162.434,103.057-294.116,230.178-294.116
	C365.784,8.484,468.84,140.166,468.84,302.6z"/>
</svg>
